<svg width="32" height="31" viewBox="0 0 32 31" fill="none" xmlns="http://www.w3.org/2000/svg">
<path fill-rule="evenodd" clip-rule="evenodd" d="M23.1561 8.72119C23.5726 9.12027 23.5726 9.76731 23.1561 10.1664L17.5107 15.5749L23.1568 20.9841C23.5733 21.3832 23.5733 22.0302 23.1568 22.4293C22.7402 22.8284 22.0648 22.8284 21.6483 22.4293L16.0022 17.0201L10.3561 22.4293C9.93951 22.8284 9.26414 22.8284 8.84758 22.4293C8.43102 22.0302 8.43102 21.3832 8.84758 20.9841L14.4937 15.5749L8.84826 10.1664C8.4317 9.76731 8.4317 9.12027 8.84826 8.72119C9.26482 8.3221 9.9402 8.3221 10.3568 8.72119L16.0022 14.1297L21.6476 8.72119C22.0641 8.3221 22.7395 8.3221 23.1561 8.72119Z" fill="black"/>
<mask id="mask0" mask-type="alpha" maskUnits="userSpaceOnUse" x="8" y="8" width="16" height="15">
<path fill-rule="evenodd" clip-rule="evenodd" d="M23.1561 8.72119C23.5726 9.12027 23.5726 9.76731 23.1561 10.1664L17.5107 15.5749L23.1568 20.9841C23.5733 21.3832 23.5733 22.0302 23.1568 22.4293C22.7402 22.8284 22.0648 22.8284 21.6483 22.4293L16.0022 17.0201L10.3561 22.4293C9.93951 22.8284 9.26414 22.8284 8.84758 22.4293C8.43102 22.0302 8.43102 21.3832 8.84758 20.9841L14.4937 15.5749L8.84826 10.1664C8.4317 9.76731 8.4317 9.12027 8.84826 8.72119C9.26482 8.3221 9.9402 8.3221 10.3568 8.72119L16.0022 14.1297L21.6476 8.72119C22.0641 8.3221 22.7395 8.3221 23.1561 8.72119Z" fill="white"/>
</mask>
<g mask="url(#mask0)">
<rect y="0.246094" width="32" height="30.6573" fill="#646364"/>
<rect x="0.5" y="0.746094" width="31" height="29.6573" stroke="#646364"/>
</g>
</svg>
