<svg width="116" height="116" viewBox="0 0 116 116" fill="none" xmlns="http://www.w3.org/2000/svg">
<path d="M4.6403 0H0V4.6403H4.6403V0Z" fill="black"/>
<path d="M9.27946 0H4.63916V4.6403H9.27946V0Z" fill="black"/>
<path d="M13.9186 0H9.27832V4.6403H13.9186V0Z" fill="black"/>
<path d="M18.5578 0H13.9175V4.6403H18.5578V0Z" fill="black"/>
<path d="M23.1969 0H18.5566V4.6403H23.1969V0Z" fill="black"/>
<path d="M27.8361 0H23.1958V4.6403H27.8361V0Z" fill="black"/>
<path d="M32.4753 0H27.835V4.6403H32.4753V0Z" fill="black"/>
<path d="M46.4125 0H41.7722V4.6403H46.4125V0Z" fill="black"/>
<path d="M55.6908 0H51.0505V4.6403H55.6908V0Z" fill="black"/>
<path d="M69.6083 0H64.968V4.6403H69.6083V0Z" fill="black"/>
<path d="M88.165 0H83.5247V4.6403H88.165V0Z" fill="black"/>
<path d="M92.8041 0H88.1638V4.6403H92.8041V0Z" fill="black"/>
<path d="M97.4433 0H92.803V4.6403H97.4433V0Z" fill="black"/>
<path d="M102.082 0H97.4421V4.6403H102.082V0Z" fill="black"/>
<path d="M106.722 0H102.081V4.6403H106.722V0Z" fill="black"/>
<path d="M111.361 0H106.72V4.6403H111.361V0Z" fill="black"/>
<path d="M116 0H111.36V4.6403H116V0Z" fill="black"/>
<path d="M4.6403 4.63916H0V9.27946H4.6403V4.63916Z" fill="black"/>
<path d="M32.4753 4.63916H27.835V9.27946H32.4753V4.63916Z" fill="black"/>
<path d="M51.0517 4.63916H46.4114V9.27946H51.0517V4.63916Z" fill="black"/>
<path d="M64.9692 4.63916H60.3289V9.27946H64.9692V4.63916Z" fill="black"/>
<path d="M69.6083 4.63916H64.968V9.27946H69.6083V4.63916Z" fill="black"/>
<path d="M74.2475 4.63916H69.6072V9.27946H74.2475V4.63916Z" fill="black"/>
<path d="M88.165 4.63916H83.5247V9.27946H88.165V4.63916Z" fill="black"/>
<path d="M116 4.63916H111.36V9.27946H116V4.63916Z" fill="black"/>
<path d="M4.6403 9.27832H0V13.9186H4.6403V9.27832Z" fill="black"/>
<path d="M13.9186 9.27832H9.27832V13.9186H13.9186V9.27832Z" fill="black"/>
<path d="M18.5578 9.27832H13.9175V13.9186H18.5578V9.27832Z" fill="black"/>
<path d="M23.1969 9.27832H18.5566V13.9186H23.1969V9.27832Z" fill="black"/>
<path d="M32.4753 9.27832H27.835V13.9186H32.4753V9.27832Z" fill="black"/>
<path d="M41.7536 9.27832H37.1133V13.9186H41.7536V9.27832Z" fill="black"/>
<path d="M60.33 9.27832H55.6897V13.9186H60.33V9.27832Z" fill="black"/>
<path d="M74.2475 9.27832H69.6072V13.9186H74.2475V9.27832Z" fill="black"/>
<path d="M78.8866 9.27832H74.2463V13.9186H78.8866V9.27832Z" fill="black"/>
<path d="M88.165 9.27832H83.5247V13.9186H88.165V9.27832Z" fill="black"/>
<path d="M97.4433 9.27832H92.803V13.9186H97.4433V9.27832Z" fill="black"/>
<path d="M102.082 9.27832H97.4421V13.9186H102.082V9.27832Z" fill="black"/>
<path d="M106.722 9.27832H102.081V13.9186H106.722V9.27832Z" fill="black"/>
<path d="M116 9.27832H111.36V13.9186H116V9.27832Z" fill="black"/>
<path d="M4.6403 13.9175H0V18.5578H4.6403V13.9175Z" fill="black"/>
<path d="M13.9186 13.9175H9.27832V18.5578H13.9186V13.9175Z" fill="black"/>
<path d="M18.5578 13.9175H13.9175V18.5578H18.5578V13.9175Z" fill="black"/>
<path d="M23.1969 13.9175H18.5566V18.5578H23.1969V13.9175Z" fill="black"/>
<path d="M32.4753 13.9175H27.835V18.5578H32.4753V13.9175Z" fill="black"/>
<path d="M41.7536 13.9175H37.1133V18.5578H41.7536V13.9175Z" fill="black"/>
<path d="M46.4125 13.9175H41.7722V18.5578H46.4125V13.9175Z" fill="black"/>
<path d="M55.6908 13.9175H51.0505V18.5578H55.6908V13.9175Z" fill="black"/>
<path d="M60.33 13.9175H55.6897V18.5578H60.33V13.9175Z" fill="black"/>
<path d="M64.9692 13.9175H60.3289V18.5578H64.9692V13.9175Z" fill="black"/>
<path d="M74.2475 13.9175H69.6072V18.5578H74.2475V13.9175Z" fill="black"/>
<path d="M78.8866 13.9175H74.2463V18.5578H78.8866V13.9175Z" fill="black"/>
<path d="M88.165 13.9175H83.5247V18.5578H88.165V13.9175Z" fill="black"/>
<path d="M97.4433 13.9175H92.803V18.5578H97.4433V13.9175Z" fill="black"/>
<path d="M102.082 13.9175H97.4421V18.5578H102.082V13.9175Z" fill="black"/>
<path d="M106.722 13.9175H102.081V18.5578H106.722V13.9175Z" fill="black"/>
<path d="M116 13.9175H111.36V18.5578H116V13.9175Z" fill="black"/>
<path d="M4.6403 18.5567H0V23.197H4.6403V18.5567Z" fill="black"/>
<path d="M13.9186 18.5567H9.27832V23.197H13.9186V18.5567Z" fill="black"/>
<path d="M18.5578 18.5567H13.9175V23.197H18.5578V18.5567Z" fill="black"/>
<path d="M23.1969 18.5567H18.5566V23.197H23.1969V18.5567Z" fill="black"/>
<path d="M32.4753 18.5567H27.835V23.197H32.4753V18.5567Z" fill="black"/>
<path d="M41.7536 18.5567H37.1133V23.197H41.7536V18.5567Z" fill="black"/>
<path d="M55.6908 18.5567H51.0505V23.197H55.6908V18.5567Z" fill="black"/>
<path d="M69.6083 18.5567H64.968V23.197H69.6083V18.5567Z" fill="black"/>
<path d="M88.165 18.5567H83.5247V23.197H88.165V18.5567Z" fill="black"/>
<path d="M97.4433 18.5567H92.803V23.197H97.4433V18.5567Z" fill="black"/>
<path d="M102.082 18.5567H97.4421V23.197H102.082V18.5567Z" fill="black"/>
<path d="M106.722 18.5567H102.081V23.197H106.722V18.5567Z" fill="black"/>
<path d="M116 18.5567H111.36V23.197H116V18.5567Z" fill="black"/>
<path d="M4.6403 23.1958H0V27.8361H4.6403V23.1958Z" fill="black"/>
<path d="M32.4753 23.1958H27.835V27.8361H32.4753V23.1958Z" fill="black"/>
<path d="M41.7536 23.1958H37.1133V27.8361H41.7536V23.1958Z" fill="black"/>
<path d="M51.0517 23.1958H46.4114V27.8361H51.0517V23.1958Z" fill="black"/>
<path d="M55.6908 23.1958H51.0505V27.8361H55.6908V23.1958Z" fill="black"/>
<path d="M60.33 23.1958H55.6897V27.8361H60.33V23.1958Z" fill="black"/>
<path d="M74.2475 23.1958H69.6072V27.8361H74.2475V23.1958Z" fill="black"/>
<path d="M78.8866 23.1958H74.2463V27.8361H78.8866V23.1958Z" fill="black"/>
<path d="M88.165 23.1958H83.5247V27.8361H88.165V23.1958Z" fill="black"/>
<path d="M116 23.1958H111.36V27.8361H116V23.1958Z" fill="black"/>
<path d="M4.6403 27.835H0V32.4753H4.6403V27.835Z" fill="black"/>
<path d="M9.27946 27.835H4.63916V32.4753H9.27946V27.835Z" fill="black"/>
<path d="M13.9186 27.835H9.27832V32.4753H13.9186V27.835Z" fill="black"/>
<path d="M18.5578 27.835H13.9175V32.4753H18.5578V27.835Z" fill="black"/>
<path d="M23.1969 27.835H18.5566V32.4753H23.1969V27.835Z" fill="black"/>
<path d="M27.8361 27.835H23.1958V32.4753H27.8361V27.835Z" fill="black"/>
<path d="M32.4753 27.835H27.835V32.4753H32.4753V27.835Z" fill="black"/>
<path d="M41.7536 27.835H37.1133V32.4753H41.7536V27.835Z" fill="black"/>
<path d="M51.0517 27.835H46.4114V32.4753H51.0517V27.835Z" fill="black"/>
<path d="M60.33 27.835H55.6897V32.4753H60.33V27.835Z" fill="black"/>
<path d="M69.6083 27.835H64.968V32.4753H69.6083V27.835Z" fill="black"/>
<path d="M78.8866 27.835H74.2463V32.4753H78.8866V27.835Z" fill="black"/>
<path d="M88.165 27.835H83.5247V32.4753H88.165V27.835Z" fill="black"/>
<path d="M92.8041 27.835H88.1638V32.4753H92.8041V27.835Z" fill="black"/>
<path d="M97.4433 27.835H92.803V32.4753H97.4433V27.835Z" fill="black"/>
<path d="M102.082 27.835H97.4421V32.4753H102.082V27.835Z" fill="black"/>
<path d="M106.722 27.835H102.081V32.4753H106.722V27.835Z" fill="black"/>
<path d="M111.361 27.835H106.72V32.4753H111.361V27.835Z" fill="black"/>
<path d="M116 27.835H111.36V32.4753H116V27.835Z" fill="black"/>
<path d="M41.7536 32.4741H37.1133V37.1144H41.7536V32.4741Z" fill="black"/>
<path d="M46.4125 32.4741H41.7722V37.1144H46.4125V32.4741Z" fill="black"/>
<path d="M51.0517 32.4741H46.4114V37.1144H51.0517V32.4741Z" fill="black"/>
<path d="M74.2475 32.4741H69.6072V37.1144H74.2475V32.4741Z" fill="black"/>
<path d="M4.6403 37.1133H0V41.7536H4.6403V37.1133Z" fill="black"/>
<path d="M13.9186 37.1133H9.27832V41.7536H13.9186V37.1133Z" fill="black"/>
<path d="M18.5578 37.1133H13.9175V41.7536H18.5578V37.1133Z" fill="black"/>
<path d="M23.1969 37.1133H18.5566V41.7536H23.1969V37.1133Z" fill="black"/>
<path d="M27.8361 37.1133H23.1958V41.7536H27.8361V37.1133Z" fill="black"/>
<path d="M32.4753 37.1133H27.835V41.7536H32.4753V37.1133Z" fill="black"/>
<path d="M46.4125 37.1133H41.7722V41.7536H46.4125V37.1133Z" fill="black"/>
<path d="M51.0517 37.1133H46.4114V41.7536H51.0517V37.1133Z" fill="black"/>
<path d="M60.33 37.1133H55.6897V41.7536H60.33V37.1133Z" fill="black"/>
<path d="M78.8866 37.1133H74.2463V41.7536H78.8866V37.1133Z" fill="black"/>
<path d="M88.165 37.1133H83.5247V41.7536H88.165V37.1133Z" fill="black"/>
<path d="M92.8041 37.1133H88.1638V41.7536H92.8041V37.1133Z" fill="black"/>
<path d="M97.4433 37.1133H92.803V41.7536H97.4433V37.1133Z" fill="black"/>
<path d="M102.082 37.1133H97.4421V41.7536H102.082V37.1133Z" fill="black"/>
<path d="M106.722 37.1133H102.081V41.7536H106.722V37.1133Z" fill="black"/>
<path d="M46.4125 41.7722H41.7722V46.4125H46.4125V41.7722Z" fill="black"/>
<path d="M51.0517 41.7722H46.4114V46.4125H51.0517V41.7722Z" fill="black"/>
<path d="M60.33 41.7722H55.6897V46.4125H60.33V41.7722Z" fill="black"/>
<path d="M64.9692 41.7722H60.3289V46.4125H64.9692V41.7722Z" fill="black"/>
<path d="M83.5258 41.7722H78.8855V46.4125H83.5258V41.7722Z" fill="black"/>
<path d="M106.722 41.7722H102.081V46.4125H106.722V41.7722Z" fill="black"/>
<path d="M4.6403 46.4114H0V51.0517H4.6403V46.4114Z" fill="black"/>
<path d="M32.4753 46.4114H27.835V51.0517H32.4753V46.4114Z" fill="black"/>
<path d="M41.7536 46.4114H37.1133V51.0517H41.7536V46.4114Z" fill="black"/>
<path d="M51.0517 46.4114H46.4114V51.0517H51.0517V46.4114Z" fill="black"/>
<path d="M60.33 46.4114H55.6897V51.0517H60.33V46.4114Z" fill="black"/>
<path d="M64.9692 46.4114H60.3289V51.0517H64.9692V46.4114Z" fill="black"/>
<path d="M69.6083 46.4114H64.968V51.0517H69.6083V46.4114Z" fill="black"/>
<path d="M74.2475 46.4114H69.6072V51.0517H74.2475V46.4114Z" fill="black"/>
<path d="M83.5258 46.4114H78.8855V51.0517H83.5258V46.4114Z" fill="black"/>
<path d="M88.165 46.4114H83.5247V51.0517H88.165V46.4114Z" fill="black"/>
<path d="M92.8041 46.4114H88.1638V51.0517H92.8041V46.4114Z" fill="black"/>
<path d="M97.4433 46.4114H92.803V51.0517H97.4433V46.4114Z" fill="black"/>
<path d="M106.722 46.4114H102.081V51.0517H106.722V46.4114Z" fill="black"/>
<path d="M111.361 46.4114H106.72V51.0517H111.361V46.4114Z" fill="black"/>
<path d="M116 46.4114H111.36V51.0517H116V46.4114Z" fill="black"/>
<path d="M4.6403 51.0506H0V55.6909H4.6403V51.0506Z" fill="black"/>
<path d="M13.9186 51.0506H9.27832V55.6909H13.9186V51.0506Z" fill="black"/>
<path d="M23.1969 51.0506H18.5566V55.6909H23.1969V51.0506Z" fill="black"/>
<path d="M37.1144 51.0506H32.4741V55.6909H37.1144V51.0506Z" fill="black"/>
<path d="M51.0517 51.0506H46.4114V55.6909H51.0517V51.0506Z" fill="black"/>
<path d="M60.33 51.0506H55.6897V55.6909H60.33V51.0506Z" fill="black"/>
<path d="M64.9692 51.0506H60.3289V55.6909H64.9692V51.0506Z" fill="black"/>
<path d="M78.8866 51.0506H74.2463V55.6909H78.8866V51.0506Z" fill="black"/>
<path d="M83.5258 51.0506H78.8855V55.6909H83.5258V51.0506Z" fill="black"/>
<path d="M102.082 51.0506H97.4421V55.6909H102.082V51.0506Z" fill="black"/>
<path d="M111.361 51.0506H106.72V55.6909H111.361V51.0506Z" fill="black"/>
<path d="M116 51.0506H111.36V55.6909H116V51.0506Z" fill="black"/>
<path d="M13.9186 55.6898H9.27832V60.3301H13.9186V55.6898Z" fill="black"/>
<path d="M23.1969 55.6898H18.5566V60.3301H23.1969V55.6898Z" fill="black"/>
<path d="M27.8361 55.6898H23.1958V60.3301H27.8361V55.6898Z" fill="black"/>
<path d="M32.4753 55.6898H27.835V60.3301H32.4753V55.6898Z" fill="black"/>
<path d="M37.1144 55.6898H32.4741V60.3301H37.1144V55.6898Z" fill="black"/>
<path d="M51.0517 55.6898H46.4114V60.3301H51.0517V55.6898Z" fill="black"/>
<path d="M60.33 55.6898H55.6897V60.3301H60.33V55.6898Z" fill="black"/>
<path d="M69.6083 55.6898H64.968V60.3301H69.6083V55.6898Z" fill="black"/>
<path d="M88.165 55.6898H83.5247V60.3301H88.165V55.6898Z" fill="black"/>
<path d="M92.8041 55.6898H88.1638V60.3301H92.8041V55.6898Z" fill="black"/>
<path d="M97.4433 55.6898H92.803V60.3301H97.4433V55.6898Z" fill="black"/>
<path d="M106.722 55.6898H102.081V60.3301H106.722V55.6898Z" fill="black"/>
<path d="M111.361 55.6898H106.72V60.3301H111.361V55.6898Z" fill="black"/>
<path d="M116 55.6898H111.36V60.3301H116V55.6898Z" fill="black"/>
<path d="M4.6403 60.3289H0V64.9692H4.6403V60.3289Z" fill="black"/>
<path d="M9.27946 60.3289H4.63916V64.9692H9.27946V60.3289Z" fill="black"/>
<path d="M18.5578 60.3289H13.9175V64.9692H18.5578V60.3289Z" fill="black"/>
<path d="M23.1969 60.3289H18.5566V64.9692H23.1969V60.3289Z" fill="black"/>
<path d="M27.8361 60.3289H23.1958V64.9692H27.8361V60.3289Z" fill="black"/>
<path d="M37.1144 60.3289H32.4741V64.9692H37.1144V60.3289Z" fill="black"/>
<path d="M46.4125 60.3289H41.7722V64.9692H46.4125V60.3289Z" fill="black"/>
<path d="M51.0517 60.3289H46.4114V64.9692H51.0517V60.3289Z" fill="black"/>
<path d="M83.5258 60.3289H78.8855V64.9692H83.5258V60.3289Z" fill="black"/>
<path d="M102.082 60.3289H97.4421V64.9692H102.082V60.3289Z" fill="black"/>
<path d="M106.722 60.3289H102.081V64.9692H106.722V60.3289Z" fill="black"/>
<path d="M4.6403 64.9681H0V69.6084H4.6403V64.9681Z" fill="black"/>
<path d="M13.9186 64.9681H9.27832V69.6084H13.9186V64.9681Z" fill="black"/>
<path d="M32.4753 64.9681H27.835V69.6084H32.4753V64.9681Z" fill="black"/>
<path d="M37.1144 64.9681H32.4741V69.6084H37.1144V64.9681Z" fill="black"/>
<path d="M41.7536 64.9681H37.1133V69.6084H41.7536V64.9681Z" fill="black"/>
<path d="M55.6908 64.9681H51.0505V69.6084H55.6908V64.9681Z" fill="black"/>
<path d="M60.33 64.9681H55.6897V69.6084H60.33V64.9681Z" fill="black"/>
<path d="M74.2475 64.9681H69.6072V69.6084H74.2475V64.9681Z" fill="black"/>
<path d="M83.5258 64.9681H78.8855V69.6084H83.5258V64.9681Z" fill="black"/>
<path d="M88.165 64.9681H83.5247V69.6084H88.165V64.9681Z" fill="black"/>
<path d="M97.4433 64.9681H92.803V69.6084H97.4433V64.9681Z" fill="black"/>
<path d="M102.082 64.9681H97.4421V69.6084H102.082V64.9681Z" fill="black"/>
<path d="M106.722 64.9681H102.081V69.6084H106.722V64.9681Z" fill="black"/>
<path d="M111.361 64.9681H106.72V69.6084H111.361V64.9681Z" fill="black"/>
<path d="M116 64.9681H111.36V69.6084H116V64.9681Z" fill="black"/>
<path d="M4.6403 69.6072H0V74.2475H4.6403V69.6072Z" fill="black"/>
<path d="M13.9186 69.6072H9.27832V74.2475H13.9186V69.6072Z" fill="black"/>
<path d="M18.5578 69.6072H13.9175V74.2475H18.5578V69.6072Z" fill="black"/>
<path d="M23.1969 69.6072H18.5566V74.2475H23.1969V69.6072Z" fill="black"/>
<path d="M27.8361 69.6072H23.1958V74.2475H27.8361V69.6072Z" fill="black"/>
<path d="M37.1144 69.6072H32.4741V74.2475H37.1144V69.6072Z" fill="black"/>
<path d="M46.4125 69.6072H41.7722V74.2475H46.4125V69.6072Z" fill="black"/>
<path d="M55.6908 69.6072H51.0505V74.2475H55.6908V69.6072Z" fill="black"/>
<path d="M69.6083 69.6072H64.968V74.2475H69.6083V69.6072Z" fill="black"/>
<path d="M74.2475 69.6072H69.6072V74.2475H74.2475V69.6072Z" fill="black"/>
<path d="M92.8041 69.6072H88.1638V74.2475H92.8041V69.6072Z" fill="black"/>
<path d="M102.082 69.6072H97.4421V74.2475H102.082V69.6072Z" fill="black"/>
<path d="M111.361 69.6072H106.72V74.2475H111.361V69.6072Z" fill="black"/>
<path d="M4.6403 74.2464H0V78.8867H4.6403V74.2464Z" fill="black"/>
<path d="M13.9186 74.2464H9.27832V78.8867H13.9186V74.2464Z" fill="black"/>
<path d="M18.5578 74.2464H13.9175V78.8867H18.5578V74.2464Z" fill="black"/>
<path d="M27.8361 74.2464H23.1958V78.8867H27.8361V74.2464Z" fill="black"/>
<path d="M32.4753 74.2464H27.835V78.8867H32.4753V74.2464Z" fill="black"/>
<path d="M46.4125 74.2464H41.7722V78.8867H46.4125V74.2464Z" fill="black"/>
<path d="M55.6908 74.2464H51.0505V78.8867H55.6908V74.2464Z" fill="black"/>
<path d="M78.8866 74.2464H74.2463V78.8867H78.8866V74.2464Z" fill="black"/>
<path d="M83.5258 74.2464H78.8855V78.8867H83.5258V74.2464Z" fill="black"/>
<path d="M88.165 74.2464H83.5247V78.8867H88.165V74.2464Z" fill="black"/>
<path d="M92.8041 74.2464H88.1638V78.8867H92.8041V74.2464Z" fill="black"/>
<path d="M97.4433 74.2464H92.803V78.8867H97.4433V74.2464Z" fill="black"/>
<path d="M106.722 74.2464H102.081V78.8867H106.722V74.2464Z" fill="black"/>
<path d="M111.361 74.2464H106.72V78.8867H111.361V74.2464Z" fill="black"/>
<path d="M116 74.2464H111.36V78.8867H116V74.2464Z" fill="black"/>
<path d="M41.7536 78.8856H37.1133V83.5258H41.7536V78.8856Z" fill="black"/>
<path d="M60.33 78.8856H55.6897V83.5258H60.33V78.8856Z" fill="black"/>
<path d="M64.9692 78.8856H60.3289V83.5258H64.9692V78.8856Z" fill="black"/>
<path d="M69.6083 78.8856H64.968V83.5258H69.6083V78.8856Z" fill="black"/>
<path d="M78.8866 78.8856H74.2463V83.5258H78.8866V78.8856Z" fill="black"/>
<path d="M97.4433 78.8856H92.803V83.5258H97.4433V78.8856Z" fill="black"/>
<path d="M4.6403 83.5247H0V88.165H4.6403V83.5247Z" fill="black"/>
<path d="M9.27946 83.5247H4.63916V88.165H9.27946V83.5247Z" fill="black"/>
<path d="M13.9186 83.5247H9.27832V88.165H13.9186V83.5247Z" fill="black"/>
<path d="M18.5578 83.5247H13.9175V88.165H18.5578V83.5247Z" fill="black"/>
<path d="M23.1969 83.5247H18.5566V88.165H23.1969V83.5247Z" fill="black"/>
<path d="M27.8361 83.5247H23.1958V88.165H27.8361V83.5247Z" fill="black"/>
<path d="M32.4753 83.5247H27.835V88.165H32.4753V83.5247Z" fill="black"/>
<path d="M64.9692 83.5247H60.3289V88.165H64.9692V83.5247Z" fill="black"/>
<path d="M69.6083 83.5247H64.968V88.165H69.6083V83.5247Z" fill="black"/>
<path d="M78.8866 83.5247H74.2463V88.165H78.8866V83.5247Z" fill="black"/>
<path d="M88.165 83.5247H83.5247V88.165H88.165V83.5247Z" fill="black"/>
<path d="M97.4433 83.5247H92.803V88.165H97.4433V83.5247Z" fill="black"/>
<path d="M102.082 83.5247H97.4421V88.165H102.082V83.5247Z" fill="black"/>
<path d="M111.361 83.5247H106.72V88.165H111.361V83.5247Z" fill="black"/>
<path d="M116 83.5247H111.36V88.165H116V83.5247Z" fill="black"/>
<path d="M4.6403 88.1639H0V92.8042H4.6403V88.1639Z" fill="black"/>
<path d="M32.4753 88.1639H27.835V92.8042H32.4753V88.1639Z" fill="black"/>
<path d="M41.7536 88.1639H37.1133V92.8042H41.7536V88.1639Z" fill="black"/>
<path d="M46.4125 88.1639H41.7722V92.8042H46.4125V88.1639Z" fill="black"/>
<path d="M60.33 88.1639H55.6897V92.8042H60.33V88.1639Z" fill="black"/>
<path d="M64.9692 88.1639H60.3289V92.8042H64.9692V88.1639Z" fill="black"/>
<path d="M74.2475 88.1639H69.6072V92.8042H74.2475V88.1639Z" fill="black"/>
<path d="M78.8866 88.1639H74.2463V92.8042H78.8866V88.1639Z" fill="black"/>
<path d="M97.4433 88.1639H92.803V92.8042H97.4433V88.1639Z" fill="black"/>
<path d="M102.082 88.1639H97.4421V92.8042H102.082V88.1639Z" fill="black"/>
<path d="M111.361 88.1639H106.72V92.8042H111.361V88.1639Z" fill="black"/>
<path d="M4.6403 92.8031H0V97.4433H4.6403V92.8031Z" fill="black"/>
<path d="M13.9186 92.8031H9.27832V97.4433H13.9186V92.8031Z" fill="black"/>
<path d="M18.5578 92.8031H13.9175V97.4433H18.5578V92.8031Z" fill="black"/>
<path d="M23.1969 92.8031H18.5566V97.4433H23.1969V92.8031Z" fill="black"/>
<path d="M32.4753 92.8031H27.835V97.4433H32.4753V92.8031Z" fill="black"/>
<path d="M41.7536 92.8031H37.1133V97.4433H41.7536V92.8031Z" fill="black"/>
<path d="M46.4125 92.8031H41.7722V97.4433H46.4125V92.8031Z" fill="black"/>
<path d="M60.33 92.8031H55.6897V97.4433H60.33V92.8031Z" fill="black"/>
<path d="M69.6083 92.8031H64.968V97.4433H69.6083V92.8031Z" fill="black"/>
<path d="M74.2475 92.8031H69.6072V97.4433H74.2475V92.8031Z" fill="black"/>
<path d="M78.8866 92.8031H74.2463V97.4433H78.8866V92.8031Z" fill="black"/>
<path d="M83.5258 92.8031H78.8855V97.4433H83.5258V92.8031Z" fill="black"/>
<path d="M88.165 92.8031H83.5247V97.4433H88.165V92.8031Z" fill="black"/>
<path d="M92.8041 92.8031H88.1638V97.4433H92.8041V92.8031Z" fill="black"/>
<path d="M97.4433 92.8031H92.803V97.4433H97.4433V92.8031Z" fill="black"/>
<path d="M106.722 92.8031H102.081V97.4433H106.722V92.8031Z" fill="black"/>
<path d="M116 92.8031H111.36V97.4433H116V92.8031Z" fill="black"/>
<path d="M4.6403 97.4422H0V102.083H4.6403V97.4422Z" fill="black"/>
<path d="M13.9186 97.4422H9.27832V102.083H13.9186V97.4422Z" fill="black"/>
<path d="M18.5578 97.4422H13.9175V102.083H18.5578V97.4422Z" fill="black"/>
<path d="M23.1969 97.4422H18.5566V102.083H23.1969V97.4422Z" fill="black"/>
<path d="M32.4753 97.4422H27.835V102.083H32.4753V97.4422Z" fill="black"/>
<path d="M41.7536 97.4422H37.1133V102.083H41.7536V97.4422Z" fill="black"/>
<path d="M78.8866 97.4422H74.2463V102.083H78.8866V97.4422Z" fill="black"/>
<path d="M88.165 97.4422H83.5247V102.083H88.165V97.4422Z" fill="black"/>
<path d="M92.8041 97.4422H88.1638V102.083H92.8041V97.4422Z" fill="black"/>
<path d="M97.4433 97.4422H92.803V102.083H97.4433V97.4422Z" fill="black"/>
<path d="M111.361 97.4422H106.72V102.083H111.361V97.4422Z" fill="black"/>
<path d="M116 97.4422H111.36V102.083H116V97.4422Z" fill="black"/>
<path d="M4.6403 102.081H0V106.722H4.6403V102.081Z" fill="black"/>
<path d="M13.9186 102.081H9.27832V106.722H13.9186V102.081Z" fill="black"/>
<path d="M18.5578 102.081H13.9175V106.722H18.5578V102.081Z" fill="black"/>
<path d="M23.1969 102.081H18.5566V106.722H23.1969V102.081Z" fill="black"/>
<path d="M32.4753 102.081H27.835V106.722H32.4753V102.081Z" fill="black"/>
<path d="M41.7536 102.081H37.1133V106.722H41.7536V102.081Z" fill="black"/>
<path d="M51.0517 102.081H46.4114V106.722H51.0517V102.081Z" fill="black"/>
<path d="M55.6908 102.081H51.0505V106.722H55.6908V102.081Z" fill="black"/>
<path d="M60.33 102.081H55.6897V106.722H60.33V102.081Z" fill="black"/>
<path d="M74.2475 102.081H69.6072V106.722H74.2475V102.081Z" fill="black"/>
<path d="M116 102.081H111.36V106.722H116V102.081Z" fill="black"/>
<path d="M4.6403 106.721H0V111.361H4.6403V106.721Z" fill="black"/>
<path d="M32.4753 106.721H27.835V111.361H32.4753V106.721Z" fill="black"/>
<path d="M55.6908 106.721H51.0505V111.361H55.6908V106.721Z" fill="black"/>
<path d="M69.6083 106.721H64.968V111.361H69.6083V106.721Z" fill="black"/>
<path d="M78.8866 106.721H74.2463V111.361H78.8866V106.721Z" fill="black"/>
<path d="M83.5258 106.721H78.8855V111.361H83.5258V106.721Z" fill="black"/>
<path d="M97.4433 106.721H92.803V111.361H97.4433V106.721Z" fill="black"/>
<path d="M102.082 106.721H97.4421V111.361H102.082V106.721Z" fill="black"/>
<path d="M116 106.721H111.36V111.361H116V106.721Z" fill="black"/>
<path d="M4.6403 111.36H0V116H4.6403V111.36Z" fill="black"/>
<path d="M9.27946 111.36H4.63916V116H9.27946V111.36Z" fill="black"/>
<path d="M13.9186 111.36H9.27832V116H13.9186V111.36Z" fill="black"/>
<path d="M18.5578 111.36H13.9175V116H18.5578V111.36Z" fill="black"/>
<path d="M23.1969 111.36H18.5566V116H23.1969V111.36Z" fill="black"/>
<path d="M27.8361 111.36H23.1958V116H27.8361V111.36Z" fill="black"/>
<path d="M32.4753 111.36H27.835V116H32.4753V111.36Z" fill="black"/>
<path d="M41.7536 111.36H37.1133V116H41.7536V111.36Z" fill="black"/>
<path d="M55.6908 111.36H51.0505V116H55.6908V111.36Z" fill="black"/>
<path d="M74.2475 111.36H69.6072V116H74.2475V111.36Z" fill="black"/>
<path d="M88.165 111.36H83.5247V116H88.165V111.36Z" fill="black"/>
<path d="M92.8041 111.36H88.1638V116H92.8041V111.36Z" fill="black"/>
<path d="M97.4433 111.36H92.803V116H97.4433V111.36Z" fill="black"/>
<path d="M102.082 111.36H97.4421V116H102.082V111.36Z" fill="black"/>
<path d="M106.722 111.36H102.081V116H106.722V111.36Z" fill="black"/>
<path d="M111.361 111.36H106.72V116H111.361V111.36Z" fill="black"/>
<path d="M116 111.36H111.36V116H116V111.36Z" fill="black"/>
</svg>
